#!OML:ASF E:/inclinewalkrobotboard/Project1/Captureday1/Session1/subject1.ASF
:FULLY-SPECIFIED
:DEGREES
126
root 0 0 0 1.8450504045766967 -3.8947414215276 2.1753275615455254
lowerback 11.986065973832023 1.1653596772254438 -0.09540848154938197
upperback -4.457598370024393 1.4652363702033466 -0.8554058299092405
thorax -11.5668439227335 0.6785191132168882 -1.1359165015905912
lowerneck -6.238785220640766 1.7526951310516263 4.833665422218612
upperneck 18.177048493781452 3.2861414723948865 -8.48924849445594
head 6.697770270213896 1.2227025191014906 -3.2934346418514826
rclavicle -2.1521979981706782E-15 -1.1020544781090957E-15
rhumerus 23.26145826816559 17.844365570864497 -48.50095449034375
rradius 74.90191092622291
rwrist 25.813581824985157
rhand -34.819221407523926 -58.10421471065446
rfingers 7.12502
rthumb -7.9619721677119255 -88.01486736160516
lclavicle -1.1173109669845116E-15 -8.413546094176178E-16
lhumerus 22.43510403832792 -14.54481569820288 45.765838852203345
lradius 71.3401468550796
lwrist -21.386490927927902
lhand -45.272463065542645 -69.02552160660001
lfingers 7.125020000000012
lthumb -18.046614911668268 -39.77731970362967
rfemur -24.512965350051832 -0.7811524764065227 18.6084667493566
rtibia 44.89631876470738
rfoot -33.03570634084894 -17.875447632771643
rtoes -23.042140518873705
lfemur -26.594863274604165 1.8313722510102526 -15.406155172875152
ltibia 45.00670996794762
lfoot -32.230529016588385 3.32973297446674
ltoes -21.499000139857486
127
root 0 0 0 1.8451927342508019 -3.8959948927702426 2.1755301559798594
lowerback 11.986191670443674 1.1660180919986831 -0.09503612822531338
upperback -4.45747644253285 1.466125656214643 -0.8558330550689738
thorax -11.566798189974383 0.6789428382265997 -1.1366829887929775
lowerneck -6.239182428726531 1.7523966194373088 4.8334154476833175
upperneck 18.17730669072808 3.285644762645471 -8.488733843725415
head 6.69793137393906 1.2225036549843873 -3.2932785958125574
rclavicle -2.1511279401116872E-15 -1.102365049260184E-15
rhumerus 23.26394623426483 17.84776072430823 -48.503099709819324
rradius 74.90399421526925
rwrist 25.811212571704008
rhand -34.81923993965132 -58.10405246885557
rfingers 7.12502
rthumb -7.962016611055844 -88.01464088626105
lclavicle -1.1157772100515417E-15 -8.417763539327948E-16
lhumerus 22.434767256624703 -14.544177137547367 45.765657432633695
lradius 71.33968867055665
lwrist -21.386833162457904
lhand -45.272391090333755 -69.0257266322788
lfingers 7.125020000000012
lthumb -18.046550230316303 -39.77763075539838
rfemur -24.513596321584252 -0.7836345150871442 18.605047999988802
rtibia 44.911845421119416
rfoot -33.027282630930316 -17.875126047421066
rtoes -23.041059137279625
lfemur -26.59534892551519 1.829857568343943 -15.413265794974725
ltibia 44.97707677605129
lfoot -32.25651853960673 3.3469693335224724
ltoes -21.49405746529039
128
root 0 0 0 1.8453346832333817 -3.8961203606521417 2.176889691485036
lowerback 11.986209081747244 1.1660008730736489 -0.09610194260469374
upperback -4.457443039223361 1.465932023212845 -0.8562082808895936
thorax -11.566748203191771 0.6788857469416265 -1.1364255881760001
lowerneck -6.239306263109714 1.7522858681699172 4.833167885978446
upperneck 18.177658825249253 3.2854935438121906 -8.48846203857744
head 6.698073990600953 1.222440599545251 -3.293186104698239
rclavicle -2.1504746772359264E-15 -1.1017735263208094E-15
rhumerus 23.265170842826244 17.849625839185897 -48.504408080421456
rradius 74.90500645990502
rwrist 25.8097802842111
rhand -34.81919464033374 -58.10372803871676
rfingers 7.12502
rthumb -7.961968729748094 -88.01419972153192
lclavicle -1.1153201094200146E-15 -8.406320845654683E-16
lhumerus 22.434393460538686 -14.543595221794416 45.76554290442863
lradius 71.33925360435566
lwrist -21.387080282671732
lhand -45.272388965870825 -69.02616486821046
lfingers 7.125020000000012
lthumb -18.04654485523343 -39.777929799768685
rfemur -24.52089067252218 -0.7881818412917041 18.59836674856837
rtibia 44.93614817018648
rfoot -33.014941065258895 -17.874461792373754
rtoes -23.040026030684675
lfemur -26.579809857034526 1.8248936772297508 -15.427601884561795
ltibia 44.92580867783926
lfoot -32.28556347487587 3.365637481890137
ltoes -21.487721895935266
129
root 0 0 0 1.8454417940246226 -3.895479495152104 2.178437848440391
lowerback 11.986024857596904 1.1656316421494082 -0.09768214084415594
upperback -4.457468603325819 1.465216477312731 -0.8564273807592363
thorax -11.566635065332536 0.6785856379438446 -1.1356430106874975
lowerneck -6.2392238051812425 1.752351871396052 4.83301203564678
upperneck 18.17761218566701 3.285604494710931 -8.488344061772104
head 6.6980452030422235 1.222496035223343 -3.2931275288437014
rclavicle -2.14912258703294E-15 -1.1014094118451382E-15
rhumerus 23.265246615544008 17.85002613091943 -48.504999186099376
rradius 74.90506458998814
rwrist 25.80918485421627
rhand -34.81907600951437 -58.10318613464933
rfingers 7.12502
rthumb -7.961851226353941 -88.01358440882328
lclavicle -1.113772534233275E-15 -8.400492638334588E-16
lhumerus 22.434220588102 -14.543502353131515 45.76561960493654
lradius 71.33907298487387
lwrist -21.387016386675832
lhand -45.27232993316325 -69.02592718528038
lfingers 7.125020000000012
lthumb -18.046486706100755 -39.777673076417486
rfemur -24.529850673822317 -0.7920661536852971 18.59200036332399
rtibia 44.95550545752545
rfoot -33.00395704898794 -17.87405292016403
rtoes -23.039251737868994
lfemur -26.56022379677374 1.8197927717272528 -15.442353423907718
ltibia 44.87584238500979
lfoot -32.31181062611698 3.3819030565648713
ltoes -21.48294443661766
130
root 0 0 0 1.8458070430985196 -3.8932972657579223 2.176888166655125
lowerback 11.986036437425222 1.1643239273056434 -0.09766113422188061
upperback -4.457520871407766 1.4635676183725292 -0.8552202544368402
thorax -11.566787460551483 0.6777981365011223 -1.134107385364153
lowerneck -6.239330601594951 1.7532581766997264 4.833880682660033
upperneck 18.175862702578495 3.286948811816928 -8.489777825666723
head 6.697426839810573 1.2230450689497916 -3.293594955623111
rclavicle -2.1587150852248824E-15 -1.094985227204679E-15
rhumerus 23.256913381905434 17.837713432377278 -48.49693116818544
rradius 74.89738866933266
rwrist 25.818145875777745
rhand -34.81887644516715 -58.103221288611934
rfingers 7.12502
rthumb -7.961984494081982 -88.01466269149012
lclavicle -1.1165623109059946E-15 -8.3440457565324435E-16
lhumerus 22.43644897370352 -14.543741471357599 45.76364230502462
lradius 71.34055367640391
lwrist -21.38910184578193
lhand -45.2725859262603 -69.0276634121756
lfingers 7.125020000000012
lthumb -18.047149022835967 -39.78049840362388
rfemur -24.53188172257529 -0.7821547005402363 18.609159934690137
rtibia 44.89192485232034
rfoot -33.045719468298216 -17.877320749690483
rtoes -23.031088837574366
lfemur -26.57047867691668 1.8273616220120332 -15.412718588259027
ltibia 44.98751783596619
lfoot -32.22663497007576 3.3282629735105997
ltoes -21.50064801835741
131
root 0 0 0 1.8451846877266505 -3.894066141088568 2.1763797132834335
lowerback 11.985839633990015 1.164992136409688 -0.09661124898141216
upperback -4.457635276328055 1.4645859792544411 -0.8554833928855953
thorax -11.566719749929462 0.6782374724263383 -1.1352172534549496
lowerneck -6.238684398119805 1.7527790239674352 4.833565833711659
upperneck 18.176893778889205 3.286276695903906 -8.48918739399182
head 6.697701903450931 1.222767532019843 -3.293395301614506
rclavicle -2.1509766261002424E-15 -1.1019273541266959E-15
rhumerus 23.261348642865116 17.844460055563083 -48.50130137119385
rradius 74.90181121359538
rwrist 25.81324805249782
rhand -34.81911954865754 -58.10376912816155
rfingers 7.12502
rthumb -7.961871237398352 -88.0143646159982
lclavicle -1.1160331828050562E-15 -8.411357102084867E-16
lhumerus 22.43508258083287 -14.545028011722122 45.76600812728078
lradius 71.34016716361685
lwrist -21.386261717078334
lhand -45.27239652789798 -69.02501228544767
lfingers 7.125020000000012
lthumb -18.046547648399603 -39.77680115480331
rfemur -24.518787873821296 -0.7826141667269408 18.605324492533747
rtibia 44.90194274668209
rfoot -33.03168756941912 -17.875569103030028
rtoes -23.043079549255665
lfemur -26.580098348472788 1.827477356430375 -15.416269336744334
ltibia 44.97057362764005
lfoot -32.24865698044696 3.3410321854058873
ltoes -21.496797534196396
132
root 0 0 0 1.8452264512878838 -3.894939605112686 2.176566489283732
lowerback 11.985858504291757 1.1655192851472114 -0.09634437123456274
upperback -4.4575586199323 1.4652911135269124 -0.8558406292972826
thorax -11.566660273241073 0.6785726612892578 -1.1358295229123434
lowerneck -6.238921077580677 1.7525504445450586 4.833392087820493
upperneck 18.177062050599982 3.2858839071321615 -8.488774815868155
head 6.697804190498316 1.2226138886617264 -3.2932716007943217
rclavicle -2.1497693754989856E-15 -1.1022020516574363E-15
rhumerus 23.2631186404557 17.846894519124632 -48.502888907509515
rradius 74.90330265481998
rwrist 25.811508744557273
rhand -34.819110475249445 -58.10360320748141
rfingers 7.12502
rthumb -7.961886678779962 -88.01414922168523
lclavicle -1.1144974552916578E-15 -8.415390188052142E-16
lhumerus 22.43481801430203 -14.54454546014732 45.76587406255091
lradius 71.33980950777061
lwrist -21.386520509354405
lhand -45.27232203666482 -69.02507903395345
lfingers 7.125020000000012
lthumb -18.04647990973782 -39.776975680248924
rfemur -24.519360745309648 -0.7849571166253297 18.601962622902427
rtibia 44.91705818400112
rfoot -33.02251407916957 -17.8749476181607
rtoes -23.041677276868327
lfemur -26.57921314532409 1.8264425772255963 -15.422342047232501
ltibia 44.94771777481899
lfoot -32.27000017917007 3.3543410555872146
ltoes -21.49398869915268
